<svg xmlns="http://www.w3.org/2000/svg" viewBox="0 0 50.25 50.25"><defs><style>.cls-1{fill:#231f20;stroke:#231f20;stroke-miterlimit:10;stroke-width:0.5px;}</style></defs><g id="Layer_2" data-name="Layer 2"><g id="Layer_2-2" data-name="Layer 2"><path class="cls-1" d="M27,42.12a1.1,1.1,0,0,1,.59-.46c.31-.06.52.18.54.51,0,.14,0,.27,0,.4V48a1.77,1.77,0,0,1-2,2H2.21a1.79,1.79,0,0,1-2-2V2.23a1.79,1.79,0,0,1,2-2H26.16a1.77,1.77,0,0,1,2,2V26.3c0,.17.05.37,0,.49s-.33.47-.51.49a.87.87,0,0,1-.59-.39,1.3,1.3,0,0,1-.06-.63V6.33H1.46V42.71H26.92C26.94,42.5,26.89,42.26,27,42.12ZM26.91,2c0-.19-.33-.39-.54-.53s-.29,0-.44,0H2.49c-.92,0-1.06.14-1.06,1.06V5.07H26.94C26.94,4,27,3,26.91,2ZM11.44,44h-10c0,.18,0,.35,0,.53,0,1.17,0,2.35,0,3.53,0,.53.2.79.67.79h9.36A3.78,3.78,0,0,1,11.44,44Zm5.92,4.85h8.75c.64,0,.83-.2.84-.83V44H17c1.12,2.31,1.11,2.89,0,4.82Zm-3.13,0a2.48,2.48,0,0,0,2.41-2.48,2.44,2.44,0,1,0-2.41,2.48Z"/><path class="cls-1" d="M45.74,31.81c.83,0,1.66,0,2.49,0A1.78,1.78,0,0,1,50,33.61q0,7.29,0,14.58A1.77,1.77,0,0,1,48.2,50H45.76a1.85,1.85,0,0,1-1.62-1,1.22,1.22,0,0,0-.6-.5Q38.77,47.07,34,45.65a5.9,5.9,0,0,1-3.14-2.15c-1.67-2.19-3.36-4.36-5.05-6.54l-6.38-8.27A1.87,1.87,0,0,1,19.5,26l.52-.6a1.93,1.93,0,0,1,3.16-.2c1.43,1.29,2.87,2.57,4.29,3.87.25.23.46.27.67,0a9.43,9.43,0,0,0,1-1.31,17.55,17.55,0,0,0,1.61-4.63,1.49,1.49,0,0,0,0-.63q-.62-2.71-1.25-5.42c-.14-.58,0-.89.36-1s.64.11.78.68c.44,1.89.89,3.78,1.32,5.67a1.31,1.31,0,0,1,0,.68c-.4,1.38-.79,2.77-1.27,4.12A5.84,5.84,0,0,1,29,30c-.8.66-1.49,1-2.32,0a1,1,0,0,0-.18-.17L22.25,26c-.49-.44-.78-.42-1.21.08-.21.23-.42.47-.62.71-.42.5-.43.69,0,1.22q5.7,7.38,11.39,14.77a4.79,4.79,0,0,0,2.5,1.71l9.09,2.72.54.14c0-.17,0-.28,0-.4,0-3.9,0-7.79,0-11.69a1.42,1.42,0,0,0-.16-.61q-4.61-9.25-9.23-18.51a3.52,3.52,0,0,0-.46-.7c-.7-.89-1.41-1.76-2.11-2.64l-2.39-3c-.25-.31-.31-.66,0-.92a.6.6,0,0,1,.91.17l.16.2c1.19,1.49,2.38,3,3.56,4.48a12.29,12.29,0,0,1,1.37,1.93c2.55,5,5,10.07,7.57,15.11l1,1.94A2,2,0,0,1,45.74,31.81Zm3.07,2.11c0-.72-.19-.92-.9-.92h-2c-.55,0-.79.24-.79.79V48c0,.55.24.79.79.79H48c.58,0,.8-.23.8-.82V33.92Z"/><path class="cls-1" d="M16.76,27.84c.34-.2.67-.24.92.13s.09.66-.32.9c-.91.52-1.82,1-2.73,1.55a.78.78,0,0,1-.88,0c-2.73-1.56-5.46-3.13-8.2-4.68A.78.78,0,0,1,5.11,25c0-3.14,0-6.27,0-9.41a.79.79,0,0,1,.44-.76q4.08-2.31,8.16-4.66a.9.9,0,0,1,1,0l8.12,4.64a.89.89,0,0,1,.5.88c0,2.32,0,4.65,0,7,0,.55-.19.8-.58.81s-.59-.23-.59-.79V17c0-.17,0-.34,0-.57l-.47.25c-2,1.14-4,2.32-6,3.41a1.42,1.42,0,0,0-.85,1.5c.05,2.41,0,4.81,0,7.34Zm-.23-15.27c-.68-.38-1.35-.78-2-1.14a.64.64,0,0,0-.52,0C11.68,12.67,9.41,14,7.14,15.28a1.08,1.08,0,0,0-.18.16L9.61,17c1.42.81,2.84,1.63,4.28,2.43a.64.64,0,0,0,.52.05c2.33-1.31,4.64-2.64,7-4l.07-.09ZM13.6,28.42c0-2.44,0-4.88,0-7.32a.72.72,0,0,0-.43-.73c-2.13-1.2-4.26-2.43-6.39-3.64l-.47-.25c0,.19,0,.32,0,.45,0,2.49,0,5,0,7.46a.7.7,0,0,0,.29.54c2.23,1.3,4.48,2.58,6.72,3.86a1.7,1.7,0,0,0,.26.12C13.59,28.71,13.6,28.56,13.6,28.42Z"/><path class="cls-1" d="M14.22,3.86h2.29c.41,0,.7-.16.7-.59s-.29-.59-.7-.59H11.89c-.4,0-.7.13-.7.58s.3.59.7.59Z"/></g></g></svg>