{"asset":{"version":"2.0","generator":"VECTARY"},"nodes":[{"translation":[0,0.0005287696977059253,0.0014714895907841274],"scale":[0.001,0.001,0.001],"rotation":[-0.7071067811865475,0,0,0.7071067811865476],"name":"Hole_Digger_Gasoline_Auger_Drill_convert","children":[1,12,17,20]},{"translation":[0,0,7.105427357601002e-15],"scale":[1,1,1],"rotation":[-0.7071067811865475,0,0,0.7071067811865476],"name":"engine_block","children":[2,3,4,5,6,7,8,9,10,11]},{"translation":[0,0,0],"scale":[1,1,1],"rotation":[0.7071067811865475,0,0,0.7071067811865476],"name":"Buffer Layer","mesh":0},{"translation":[0,0,0],"scale":[1,1,1],"rotation":[0.7071067811865475,0,0,0.7071067811865476],"name":"Buffer Layer","mesh":1},{"translation":[0,0,0],"scale":[1,1,1],"rotation":[0.7071067811865475,0,0,0.7071067811865476],"name":"Buffer Layer","mesh":2},{"translation":[0,0,0],"scale":[1,1,1],"rotation":[0.7071067811865475,0,0,0.7071067811865476],"name":"Buffer Layer","mesh":3},{"translation":[0,0,0],"scale":[1,1,1],"rotation":[0.7071067811865475,0,0,0.7071067811865476],"name":"Buffer Layer","mesh":4},{"translation":[0,0,0],"scale":[1,1,1],"rotation":[0.7071067811865475,0,0,0.7071067811865476],"name":"Buffer Layer","mesh":5},{"translation":[0,0,0],"scale":[1,1,1],"rotation":[0.7071067811865475,0,0,0.7071067811865476],"name":"Buffer Layer","mesh":6},{"translation":[0,0,0],"scale":[1,1,1],"rotation":[0.7071067811865475,0,0,0.7071067811865476],"name":"Buffer Layer","mesh":7},{"translation":[0,0,0],"scale":[1,1,1],"rotation":[0.7071067811865475,0,0,0.7071067811865476],"name":"Buffer Layer","mesh":8},{"translation":[0,0,0],"scale":[1,1,1],"rotation":[0.7071067811865475,0,0,0.7071067811865476],"name":"Buffer Layer","mesh":9},{"translation":[0,0,7.105427357601002e-15],"scale":[1,1,1],"rotation":[-0.7071067811865475,0,0,0.7071067811865476],"name":"handles","children":[13,14,15,16]},{"translation":[0,0,0],"scale":[1,1,1],"rotation":[0.7071067811865475,0,0,0.7071067811865476],"name":"Buffer Layer","mesh":10},{"translation":[0,0,0],"scale":[1,1,1],"rotation":[0.7071067811865475,0,0,0.7071067811865476],"name":"Buffer Layer","mesh":11},{"translation":[0,0,0],"scale":[1,1,1],"rotation":[0.7071067811865475,0,0,0.7071067811865476],"name":"Buffer Layer","mesh":12},{"translation":[0,0,0],"scale":[1,1,1],"rotation":[0.7071067811865475,0,0,0.7071067811865476],"name":"Buffer Layer","mesh":13},{"translation":[0,0,7.105427357601002e-15],"scale":[1,1,1],"rotation":[-0.7071067811865475,0,0,0.7071067811865476],"name":"korpus_tubes","children":[18,19]},{"translation":[0,0,0],"scale":[1,1,1],"rotation":[0.7071067811865475,0,0,0.7071067811865476],"name":"Buffer Layer","mesh":14},{"translation":[0,0,0],"scale":[1,1,1],"rotation":[0.7071067811865475,0,0,0.7071067811865476],"name":"Buffer Layer","mesh":15},{"translation":[0,0,7.105427357601002e-15],"scale":[1,1,1],"rotation":[-0.7071067811865475,0,0,0.7071067811865476],"name":"drill_big","children":[21,22]},{"translation":[0,0,0],"scale":[1,1,1],"rotation":[0.7071067811865475,0,0,0.7071067811865476],"name":"Buffer Layer","mesh":16},{"translation":[0,0,0],"scale":[1,1,1],"rotation":[0.7071067811865475,0,0,0.7071067811865476],"name":"Buffer Layer","mesh":17},{"translation":[-0.042660962597414816,0.12562507141410073,0.16717566049405605],"scale":[1,1,1],"rotation":[-0.2068996441068836,-0.1393555487584111,-0.0297879632700164,0.9679283266559104],"name":"Camera","camera":0}],"materials":[{"pbrMetallicRoughness":{"baseColorFactor":[0.0012017382005253235,0.0012017382005253235,0.0012017382005253235,1],"metallicFactor":0,"roughnessFactor":0.7},"name":"chrome_glossy","emissiveFactor":[0,0,0],"alphaMode":"OPAQUE","doubleSided":false},{"pbrMetallicRoughness":{"baseColorFactor":[0.0000233280226286663,0.0000233280226286663,0.0000233280226286663,1],"metallicFactor":0,"roughnessFactor":0.7},"name":"metal_black","emissiveFactor":[0,0,0],"alphaMode":"OPAQUE","doubleSided":false},{"pbrMetallicRoughness":{"baseColorFactor":[0.039947342300611734,0.039947342300611734,0.039947342300611734,1],"metallicFactor":0,"roughnessFactor":0.7},"name":"metal_glossy","emissiveFactor":[0,0,0],"alphaMode":"OPAQUE","doubleSided":false},{"pbrMetallicRoughness":{"baseColorFactor":[1,1,1,1],"baseColorTexture":{"index":0,"extensions":{"KHR_texture_transform":{"offset":[0,0],"scale":[1,1],"rotation":0}},"texCoord":0},"metallicFactor":0,"roughnessFactor":0.7},"name":"plastik_black_bump","emissiveFactor":[0,0,0],"alphaMode":"OPAQUE","doubleSided":false},{"pbrMetallicRoughness":{"baseColorFactor":[1,1,1,1],"baseColorTexture":{"index":0,"extensions":{"KHR_texture_transform":{"offset":[0,0],"scale":[1,1],"rotation":0}},"texCoord":0},"metallicFactor":0,"roughnessFactor":0.7},"name":"orange_metal","emissiveFactor":[0,0,0],"alphaMode":"OPAQUE","doubleSided":false},{"pbrMetallicRoughness":{"baseColorFactor":[0.005028206102128169,0.039947342300611734,0.0012017382005253235,0.15],"metallicFactor":0,"roughnessFactor":0.7},"name":"tube_plastik_green","emissiveFactor":[0,0,0],"alphaMode":"BLEND","doubleSided":false},{"pbrMetallicRoughness":{"baseColorFactor":[0.17013852097509255,0,0,1],"metallicFactor":0,"roughnessFactor":0.7},"name":"plastik_red","emissiveFactor":[0,0,0],"alphaMode":"OPAQUE","doubleSided":false},{"pbrMetallicRoughness":{"baseColorFactor":[0.9075477314038691,0.9157494714343907,0.8993841466306576,0.22],"metallicFactor":0,"roughnessFactor":0.7},"name":"tube_plastik_white","emissiveFactor":[0,0,0],"alphaMode":"BLEND","doubleSided":false},{"pbrMetallicRoughness":{"baseColorFactor":[1,1,1,1],"baseColorTexture":{"index":0,"extensions":{"KHR_texture_transform":{"offset":[0,0],"scale":[1,1],"rotation":0}},"texCoord":0},"metallicFactor":0,"roughnessFactor":0.7},"name":"metal_black_diff","emissiveFactor":[0,0,0],"alphaMode":"OPAQUE","doubleSided":false},{"pbrMetallicRoughness":{"baseColorFactor":[1,1,1,0.92],"baseColorTexture":{"index":0,"extensions":{"KHR_texture_transform":{"offset":[0,0],"scale":[1,1],"rotation":0}},"texCoord":0},"metallicFactor":0,"roughnessFactor":0.7},"name":"plastik_white","emissiveFactor":[0,0,0],"alphaMode":"BLEND","doubleSided":false},{"pbrMetallicRoughness":{"baseColorFactor":[0.0000233280226286663,0.0000233280226286663,0.0000233280226286663,1],"metallicFactor":0,"roughnessFactor":0.7},"name":"metal_black0","emissiveFactor":[0,0,0],"alphaMode":"OPAQUE","doubleSided":false},{"pbrMetallicRoughness":{"baseColorFactor":[0.0000233280226286663,0.0000233280226286663,0.0000233280226286663,1],"metallicFactor":0,"roughnessFactor":0.7},"name":"plastik_black_bump0","emissiveFactor":[0,0,0],"alphaMode":"OPAQUE","doubleSided":false},{"pbrMetallicRoughness":{"baseColorFactor":[0.0000569217030982696,0.0000569217030982696,0.0000569217030982696,1],"metallicFactor":0,"roughnessFactor":0.7},"name":"plastik_black_tube","emissiveFactor":[0,0,0],"alphaMode":"OPAQUE","doubleSided":false},{"pbrMetallicRoughness":{"baseColorFactor":[0.5295238323395052,0.001433135074732847,0,1],"metallicFactor":0,"roughnessFactor":0.7},"name":"plastik_orange","emissiveFactor":[0,0,0],"alphaMode":"OPAQUE","doubleSided":false},{"pbrMetallicRoughness":{"baseColorFactor":[0.0000233280226286663,0.0000233280226286663,0.0000233280226286663,1],"metallicFactor":0,"roughnessFactor":0.7},"name":"metal_black1","emissiveFactor":[0,0,0],"alphaMode":"OPAQUE","doubleSided":false},{"pbrMetallicRoughness":{"baseColorFactor":[0.0012017382005253235,0.0012017382005253235,0.0012017382005253235,1],"metallicFactor":0,"roughnessFactor":0.7},"name":"chrome_glossy0","emissiveFactor":[0,0,0],"alphaMode":"OPAQUE","doubleSided":false},{"pbrMetallicRoughness":{"baseColorFactor":[0.0000233280226286663,0.0000233280226286663,0.0000233280226286663,1],"metallicFactor":0,"roughnessFactor":0.7},"name":"metal_black_drill","emissiveFactor":[0,0,0],"alphaMode":"OPAQUE","doubleSided":false},{"pbrMetallicRoughness":{"baseColorFactor":[0.0003671368467446138,0.0003671368467446138,0.0003671368467446138,1],"metallicFactor":0,"roughnessFactor":0.7},"name":"metal_glossy0","emissiveFactor":[0,0,0],"alphaMode":"OPAQUE","doubleSided":false}],"meshes":[{"primitives":[{"mode":4,"attributes":{"POSITION":1,"NORMAL":2,"TEXCOORD_0":3},"material":0,"indices":0}]},{"primitives":[{"mode":4,"attributes":{"POSITION":5,"NORMAL":6,"TEXCOORD_0":7},"material":1,"indices":4}]},{"primitives":[{"mode":4,"attributes":{"POSITION":9,"NORMAL":10,"TEXCOORD_0":11},"material":2,"indices":8}]},{"primitives":[{"mode":4,"attributes":{"POSITION":13,"NORMAL":14,"TEXCOORD_0":15},"material":3,"indices":12}]},{"primitives":[{"mode":4,"attributes":{"POSITION":17,"NORMAL":18,"TEXCOORD_0":19},"material":4,"indices":16}]},{"primitives":[{"mode":4,"attributes":{"POSITION":21,"NORMAL":22,"TEXCOORD_0":23},"material":5,"indices":20}]},{"primitives":[{"mode":4,"attributes":{"POSITION":25,"NORMAL":26,"TEXCOORD_0":27},"material":6,"indices":24}]},{"primitives":[{"mode":4,"attributes":{"POSITION":29,"NORMAL":30,"TEXCOORD_0":31},"material":7,"indices":28}]},{"primitives":[{"mode":4,"attributes":{"POSITION":33,"NORMAL":34,"TEXCOORD_0":35},"material":8,"indices":32}]},{"primitives":[{"mode":4,"attributes":{"POSITION":37,"NORMAL":38,"TEXCOORD_0":39},"material":9,"indices":36}]},{"primitives":[{"mode":4,"attributes":{"POSITION":41,"NORMAL":42,"TEXCOORD_0":43},"material":10,"indices":40}]},{"primitives":[{"mode":4,"attributes":{"POSITION":45,"NORMAL":46,"TEXCOORD_0":47},"material":11,"indices":44}]},{"primitives":[{"mode":4,"attributes":{"POSITION":49,"NORMAL":50,"TEXCOORD_0":51},"material":12,"indices":48}]},{"primitives":[{"mode":4,"attributes":{"POSITION":53,"NORMAL":54,"TEXCOORD_0":55},"material":13,"indices":52}]},{"primitives":[{"mode":4,"attributes":{"POSITION":57,"NORMAL":58,"TEXCOORD_0":59},"material":14,"indices":56}]},{"primitives":[{"mode":4,"attributes":{"POSITION":61,"NORMAL":62,"TEXCOORD_0":63},"material":15,"indices":60}]},{"primitives":[{"mode":4,"attributes":{"POSITION":65,"NORMAL":66,"TEXCOORD_0":67},"material":16,"indices":64}]},{"primitives":[{"mode":4,"attributes":{"POSITION":69,"NORMAL":70,"TEXCOORD_0":71},"material":17,"indices":68}]}],"accessors":[{"bufferView":0,"byteOffset":0,"componentType":5125,"count":17196,"type":"SCALAR"},{"bufferView":1,"byteOffset":0,"componentType":5126,"count":5888,"max":[6.100130081176758,12.36676025390625,96.54238891601562],"min":[-5.393030166625977,-10.06056022644043,66.76618194580078],"type":"VEC3"},{"bufferView":2,"byteOffset":0,"componentType":5126,"count":5888,"type":"VEC3"},{"bufferView":3,"byteOffset":0,"componentType":5126,"count":5888,"type":"VEC2"},{"bufferView":4,"byteOffset":0,"componentType":5125,"count":38916,"type":"SCALAR"},{"bufferView":5,"byteOffset":0,"componentType":5126,"count":17076,"max":[10.842120170593262,12.36676025390625,97.26403045654297],"min":[-9.430139541625977,-9.89618968963623,62.87055969238281],"type":"VEC3"},{"bufferView":6,"byteOffset":0,"componentType":5126,"count":17076,"type":"VEC3"},{"bufferView":7,"byteOffset":0,"componentType":5126,"count":17076,"type":"VEC2"},{"bufferView":8,"byteOffset":0,"componentType":5125,"count":11040,"type":"SCALAR"},{"bufferView":9,"byteOffset":0,"componentType":5126,"count":4192,"max":[11.76984977722168,12.36676025390625,95.71968078613281],"min":[-5.654630184173584,-5.267819881439209,82.40506744384766],"type":"VEC3"},{"bufferView":10,"byteOffset":0,"componentType":5126,"count":4192,"type":"VEC3"},{"bufferView":11,"byteOffset":0,"componentType":5126,"count":4192,"type":"VEC2"},{"bufferView":12,"byteOffset":0,"componentType":5125,"count":18537,"type":"SCALAR"},{"bufferView":13,"byteOffset":0,"componentType":5126,"count":7654,"max":[15.081049919128418,13.44186019897461,100.68956756591797],"min":[-4.843480110168457,-2.3118999004364014,66.76618194580078],"type":"VEC3"},{"bufferView":14,"byteOffset":0,"componentType":5126,"count":7654,"type":"VEC3"},{"bufferView":15,"byteOffset":0,"componentType":5126,"count":7654,"type":"VEC2"},{"bufferView":16,"byteOffset":0,"componentType":5125,"count":77724,"type":"SCALAR"},{"bufferView":17,"byteOffset":0,"componentType":5126,"count":58778,"max":[15.230669975280762,12.36676025390625,96.70633697509766],"min":[-9.523050308227539,-9.772100448608398,66.81139373779297],"type":"VEC3"},{"bufferView":18,"byteOffset":0,"componentType":5126,"count":58778,"type":"VEC3"},{"bufferView":19,"byteOffset":0,"componentType":5126,"count":58778,"type":"VEC2"},{"bufferView":20,"byteOffset":0,"componentType":5125,"count":768,"type":"SCALAR"},{"bufferView":21,"byteOffset":0,"componentType":5126,"count":347,"max":[8.696249961853027,9.655059814453125,93.74083709716797],"min":[-4.869269847869873,6.545780181884766,89.14388275146484],"type":"VEC3"},{"bufferView":22,"byteOffset":0,"componentType":5126,"count":347,"type":"VEC3"},{"bufferView":23,"byteOffset":0,"componentType":5126,"count":347,"type":"VEC2"},{"bufferView":24,"byteOffset":0,"componentType":5125,"count":288,"type":"SCALAR"},{"bufferView":25,"byteOffset":0,"componentType":5126,"count":144,"max":[5.263070106506348,11.367170333862305,90.89556884765625],"min":[2.840869903564453,10.76648998260498,82.36962890625],"type":"VEC3"},{"bufferView":26,"byteOffset":0,"componentType":5126,"count":144,"type":"VEC3"},{"bufferView":27,"byteOffset":0,"componentType":5126,"count":144,"type":"VEC2"},{"bufferView":28,"byteOffset":0,"componentType":5125,"count":5694,"type":"SCALAR"},{"bufferView":29,"byteOffset":0,"componentType":5126,"count":1831,"max":[4.968379974365234,11.741270065307617,93.14389038085938],"min":[-4.869269847869873,7.258299827575684,84.57820129394531],"type":"VEC3"},{"bufferView":30,"byteOffset":0,"componentType":5126,"count":1831,"type":"VEC3"},{"bufferView":31,"byteOffset":0,"componentType":5126,"count":1831,"type":"VEC2"},{"bufferView":32,"byteOffset":0,"componentType":5125,"count":8640,"type":"SCALAR"},{"bufferView":33,"byteOffset":0,"componentType":5126,"count":3972,"max":[11.138440132141113,16.48077964782715,95.3181381225586],"min":[2.8273398876190186,7.020959854125977,87.53276062011719],"type":"VEC3"},{"bufferView":34,"byteOffset":0,"componentType":5126,"count":3972,"type":"VEC3"},{"bufferView":35,"byteOffset":0,"componentType":5126,"count":3972,"type":"VEC2"},{"bufferView":36,"byteOffset":0,"componentType":5125,"count":5004,"type":"SCALAR"},{"bufferView":37,"byteOffset":0,"componentType":5126,"count":1313,"max":[-1.5104399919509888,13.49806022644043,100.12496185302734],"min":[-9.469590187072754,-8.441829681396484,86.82714080810547],"type":"VEC3"},{"bufferView":38,"byteOffset":0,"componentType":5126,"count":1313,"type":"VEC3"},{"bufferView":39,"byteOffset":0,"componentType":5126,"count":1313,"type":"VEC2"},{"bufferView":40,"byteOffset":0,"componentType":5125,"count":28980,"type":"SCALAR"},{"bufferView":41,"byteOffset":0,"componentType":5126,"count":12805,"max":[-22.236730575561523,6.79079008102417,86.61570739746094],"min":[-25.699960708618164,-17.675540924072266,79.70364379882812],"type":"VEC3"},{"bufferView":42,"byteOffset":0,"componentType":5126,"count":12805,"type":"VEC3"},{"bufferView":43,"byteOffset":0,"componentType":5126,"count":12805,"type":"VEC2"},{"bufferView":44,"byteOffset":0,"componentType":5125,"count":45465,"type":"SCALAR"},{"bufferView":45,"byteOffset":0,"componentType":5126,"count":18822,"max":[26.036640167236328,7.965459823608398,87.07856750488281],"min":[-26.036640167236328,-16.87272071838379,79.02377319335938],"type":"VEC3"},{"bufferView":46,"byteOffset":0,"componentType":5126,"count":18822,"type":"VEC3"},{"bufferView":47,"byteOffset":0,"componentType":5126,"count":18822,"type":"VEC2"},{"bufferView":48,"byteOffset":0,"componentType":5125,"count":27006,"type":"SCALAR"},{"bufferView":49,"byteOffset":0,"componentType":5126,"count":17316,"max":[4.920539855957031,15.148579597473145,86.09776306152344],"min":[-24.864349365234375,7.334690093994141,75.20291900634766],"type":"VEC3"},{"bufferView":50,"byteOffset":0,"componentType":5126,"count":17316,"type":"VEC3"},{"bufferView":51,"byteOffset":0,"componentType":5126,"count":17316,"type":"VEC2"},{"bufferView":52,"byteOffset":0,"componentType":5125,"count":6570,"type":"SCALAR"},{"bufferView":53,"byteOffset":0,"componentType":5126,"count":2250,"max":[-22.89154052734375,-2.8434998989105225,88.36318969726562],"min":[-25.583030700683594,-13.599849700927734,76.9543228149414],"type":"VEC3"},{"bufferView":54,"byteOffset":0,"componentType":5126,"count":2250,"type":"VEC3"},{"bufferView":55,"byteOffset":0,"componentType":5126,"count":2250,"type":"VEC2"},{"bufferView":56,"byteOffset":0,"componentType":5125,"count":36156,"type":"SCALAR"},{"bufferView":57,"byteOffset":0,"componentType":5126,"count":16389,"max":[25.065540313720703,17.675540924072266,84.61100769042969],"min":[-25.362560272216797,-16.036659240722656,67.38697052001953],"type":"VEC3"},{"bufferView":58,"byteOffset":0,"componentType":5126,"count":16389,"type":"VEC3"},{"bufferView":59,"byteOffset":0,"componentType":5126,"count":16389,"type":"VEC2"},{"bufferView":60,"byteOffset":0,"componentType":5125,"count":2880,"type":"SCALAR"},{"bufferView":61,"byteOffset":0,"componentType":5126,"count":800,"max":[4.982069969177246,5.9185099601745605,68.36305236816406],"min":[-3.6750199794769287,-2.9140799045562744,68.2213134765625],"type":"VEC3"},{"bufferView":62,"byteOffset":0,"componentType":5126,"count":800,"type":"VEC3"},{"bufferView":63,"byteOffset":0,"componentType":5126,"count":800,"type":"VEC2"},{"bufferView":64,"byteOffset":0,"componentType":5125,"count":6672,"type":"SCALAR"},{"bufferView":65,"byteOffset":0,"componentType":5126,"count":2353,"max":[9.753049850463867,11.268019676208496,66.60099029541016],"min":[-9.6664400100708,-8.153989791870117,3.937839984893799],"type":"VEC3"},{"bufferView":66,"byteOffset":0,"componentType":5126,"count":2353,"type":"VEC3"},{"bufferView":67,"byteOffset":0,"componentType":5126,"count":2353,"type":"VEC2"},{"bufferView":68,"byteOffset":0,"componentType":5125,"count":1662,"type":"SCALAR"},{"bufferView":69,"byteOffset":0,"componentType":5126,"count":827,"max":[0.827709972858429,2.608180046081543,9.701310157775879],"min":[-9.711529731750488,0.9078099727630615,0],"type":"VEC3"},{"bufferView":70,"byteOffset":0,"componentType":5126,"count":827,"type":"VEC3"},{"bufferView":71,"byteOffset":0,"componentType":5126,"count":827,"type":"VEC2"}],"bufferViews":[{"buffer":0,"byteOffset":0,"byteLength":68784,"target":34963},{"buffer":0,"byteOffset":68784,"byteLength":70656,"target":34962},{"buffer":0,"byteOffset":139440,"byteLength":70656,"target":34962},{"buffer":0,"byteOffset":210096,"byteLength":47104,"target":34962},{"buffer":0,"byteOffset":257200,"byteLength":155664,"target":34963},{"buffer":0,"byteOffset":412864,"byteLength":204912,"target":34962},{"buffer":0,"byteOffset":617776,"byteLength":204912,"target":34962},{"buffer":0,"byteOffset":822688,"byteLength":136608,"target":34962},{"buffer":0,"byteOffset":959296,"byteLength":44160,"target":34963},{"buffer":0,"byteOffset":1003456,"byteLength":50304,"target":34962},{"buffer":0,"byteOffset":1053760,"byteLength":50304,"target":34962},{"buffer":0,"byteOffset":1104064,"byteLength":33536,"target":34962},{"buffer":0,"byteOffset":1137600,"byteLength":74148,"target":34963},{"buffer":0,"byteOffset":1211748,"byteLength":91848,"target":34962},{"buffer":0,"byteOffset":1303596,"byteLength":91848,"target":34962},{"buffer":0,"byteOffset":1395444,"byteLength":61232,"target":34962},{"buffer":0,"byteOffset":1456676,"byteLength":310896,"target":34963},{"buffer":0,"byteOffset":1767572,"byteLength":705336,"target":34962},{"buffer":0,"byteOffset":2472908,"byteLength":705336,"target":34962},{"buffer":0,"byteOffset":3178244,"byteLength":470224,"target":34962},{"buffer":0,"byteOffset":3648468,"byteLength":3072,"target":34963},{"buffer":0,"byteOffset":3651540,"byteLength":4164,"target":34962},{"buffer":0,"byteOffset":3655704,"byteLength":4164,"target":34962},{"buffer":0,"byteOffset":3659868,"byteLength":2776,"target":34962},{"buffer":0,"byteOffset":3662644,"byteLength":1152,"target":34963},{"buffer":0,"byteOffset":3663796,"byteLength":1728,"target":34962},{"buffer":0,"byteOffset":3665524,"byteLength":1728,"target":34962},{"buffer":0,"byteOffset":3667252,"byteLength":1152,"target":34962},{"buffer":0,"byteOffset":3668404,"byteLength":22776,"target":34963},{"buffer":0,"byteOffset":3691180,"byteLength":21972,"target":34962},{"buffer":0,"byteOffset":3713152,"byteLength":21972,"target":34962},{"buffer":0,"byteOffset":3735124,"byteLength":14648,"target":34962},{"buffer":0,"byteOffset":3749772,"byteLength":34560,"target":34963},{"buffer":0,"byteOffset":3784332,"byteLength":47664,"target":34962},{"buffer":0,"byteOffset":3831996,"byteLength":47664,"target":34962},{"buffer":0,"byteOffset":3879660,"byteLength":31776,"target":34962},{"buffer":0,"byteOffset":3911436,"byteLength":20016,"target":34963},{"buffer":0,"byteOffset":3931452,"byteLength":15756,"target":34962},{"buffer":0,"byteOffset":3947208,"byteLength":15756,"target":34962},{"buffer":0,"byteOffset":3962964,"byteLength":10504,"target":34962},{"buffer":0,"byteOffset":3973468,"byteLength":115920,"target":34963},{"buffer":0,"byteOffset":4089388,"byteLength":153660,"target":34962},{"buffer":0,"byteOffset":4243048,"byteLength":153660,"target":34962},{"buffer":0,"byteOffset":4396708,"byteLength":102440,"target":34962},{"buffer":0,"byteOffset":4499148,"byteLength":181860,"target":34963},{"buffer":0,"byteOffset":4681008,"byteLength":225864,"target":34962},{"buffer":0,"byteOffset":4906872,"byteLength":225864,"target":34962},{"buffer":0,"byteOffset":5132736,"byteLength":150576,"target":34962},{"buffer":0,"byteOffset":5283312,"byteLength":108024,"target":34963},{"buffer":0,"byteOffset":5391336,"byteLength":207792,"target":34962},{"buffer":0,"byteOffset":5599128,"byteLength":207792,"target":34962},{"buffer":0,"byteOffset":5806920,"byteLength":138528,"target":34962},{"buffer":0,"byteOffset":5945448,"byteLength":26280,"target":34963},{"buffer":0,"byteOffset":5971728,"byteLength":27000,"target":34962},{"buffer":0,"byteOffset":5998728,"byteLength":27000,"target":34962},{"buffer":0,"byteOffset":6025728,"byteLength":18000,"target":34962},{"buffer":0,"byteOffset":6043728,"byteLength":144624,"target":34963},{"buffer":0,"byteOffset":6188352,"byteLength":196668,"target":34962},{"buffer":0,"byteOffset":6385020,"byteLength":196668,"target":34962},{"buffer":0,"byteOffset":6581688,"byteLength":131112,"target":34962},{"buffer":0,"byteOffset":6712800,"byteLength":11520,"target":34963},{"buffer":0,"byteOffset":6724320,"byteLength":9600,"target":34962},{"buffer":0,"byteOffset":6733920,"byteLength":9600,"target":34962},{"buffer":0,"byteOffset":6743520,"byteLength":6400,"target":34962},{"buffer":0,"byteOffset":6749920,"byteLength":26688,"target":34963},{"buffer":0,"byteOffset":6776608,"byteLength":28236,"target":34962},{"buffer":0,"byteOffset":6804844,"byteLength":28236,"target":34962},{"buffer":0,"byteOffset":6833080,"byteLength":18824,"target":34962},{"buffer":0,"byteOffset":6851904,"byteLength":6648,"target":34963},{"buffer":0,"byteOffset":6858552,"byteLength":9924,"target":34962},{"buffer":0,"byteOffset":6868476,"byteLength":9924,"target":34962},{"buffer":0,"byteOffset":6878400,"byteLength":6616,"target":34962}],"textures":[{"sampler":0,"source":0}],"images":[{"uri":"engine_block.jpg","mimeType":"image/jpeg"}],"samplers":[{"wrapS":10497,"wrapT":10497}],"cameras":[{"name":"Camera","type":"perspective","extras":{"targetDistance":0.18967655753449114},"perspective":{"aspectRatio":0.9685767097966729,"yfov":0.6108652381980153,"zfar":27.170426228933557,"znear":0.0017359121656010754}}],"scene":0,"scenes":[{"nodes":[0,23],"name":"augger"}],"extensionsUsed":["KHR_texture_transform"],"buffers":[{"byteLength":6885016,"uri":"augger.bin"}]}